<svg width="1000" height="600" xmlns="http://www.w3.org/2000/svg"><defs><linearGradient id="a" gradientTransform="rotate(90)"><stop offset="5%" stop-color="#fce1ff"/><stop offset="95%" stop-color="#fce8ff"/></linearGradient></defs><path fill="#fff" d="M0 0h1000v600H0z"/><path d="M0 300c23.253 28.302 46.506 56.603 72 48 25.494-8.603 53.229-54.11 78-70s46.579-2.16 67 15 39.456 37.75 63 20c23.544-17.75 51.595-73.84 78-80 26.405-6.16 51.162 37.613 74 72s43.756 59.39 65 60c21.244.61 42.813-23.175 67-45 24.187-21.825 50.992-41.691 74-53 23.008-11.309 42.22-14.06 68-9 25.78 5.06 58.126 17.934 84 40 25.874 22.066 45.274 53.326 69 56 23.726 2.674 51.779-23.236 76-37 24.221-13.764 44.61-15.382 105-17l-40 300H0Z" fill="url(#a)"/></svg>