<svg width="1000" height="600" xmlns="http://www.w3.org/2000/svg"><defs><linearGradient id="a" gradientTransform="rotate(90)"><stop offset="5%" stop-color="#fff"/><stop offset="95%" stop-color="#fff"/></linearGradient></defs><path fill="#fce1ff" d="M0 0h1000v600H0z"/><path d="M0 300c17.228 4.845 34.456 9.69 51 10 16.544.31 32.403-3.918 49-5 16.597-1.082 33.933.98 50-1s30.865-8.005 48-15c17.135-6.995 36.606-14.962 54-19s32.71-4.146 48 4 30.551 24.547 47 31c16.449 6.453 34.084 2.958 51 0 16.916-2.958 33.112-5.378 50-13 16.888-7.622 34.468-20.447 51-20 16.532.447 32.015 14.165 49 28s35.473 27.788 52 24c16.527-3.788 31.095-25.317 47-29 15.905-3.683 33.149 10.48 51 9 17.851-1.48 36.31-18.602 53-18 16.69.602 31.613 18.93 48 32s34.238 20.885 51 10c16.762-10.885 32.436-40.469 49-51 16.564-10.531 34.018-2.009 51 5s33.49 12.504 90 18l-40 300H0Z" fill="url(#a)"/></svg>